<?xml version="1.0" encoding="UTF-8"?>
<svg id="a" data-name="Layer 2" xmlns="http://www.w3.org/2000/svg" viewBox="0 0 274 324">
  <defs>
    <style>
      .c {
        fill: #389495;
      }

      .d {
        fill: #046f79;
      }
    </style>
  </defs>
  <g id="b" data-name="Layer 1">
    <g>
      <path class="c" d="M74.96,282.38l-.03,41.62h-17.2v-22.25s-14.65-.27-14.65-.27l-.1-18.72c9.28-.11,17.63-1.11,26.05-.69l5.93.3Z"/>
      <path class="d" d="M94.89,1c8.03-.19,16.43.76,24.11-1h1l-.08,25.42-25.45-.5.43-23.92Z"/>
      <polygon class="c" points="69 0 68.47 19.1 42.97 19.02 43 0 69 0"/>
      <polygon class="d" points="18.77 324 0 324 0 302 18.77 301.96 18.77 324"/>
      <polygon class="c" points="196.66 308.08 197 324 171.35 324 171.07 308.2 171.94 307.92 196.66 308.08"/>
      <polygon class="d" points="274 308 274 324 248.65 324 248.76 308.12 274 308"/>
      <polygon class="d" points="171.07 308.2 171.35 324 146 324 146.08 308.27 171.07 308.2"/>
      <path class="d" d="M119.9,309.08l-.08,14.92h-25.15l.3-16.03,21.07.03c1.01,0,3.2.76,3.86,1.09Z"/>
      <polygon class="c" points="19 0 18.72 19.07 0 19 0 0 19 0"/>
      <polygon class="d" points="0 197 0 178 18.78 178.17 18.67 197 0 197"/>
      <polygon class="d" points="0 58 0 39 18.74 38.74 18.78 57.98 42.98 57.92 43.01 76.97 19.19 76.72 19.18 57.38 0 58"/>
      <polygon class="d" points="38.11 244.31 38.07 262.78 19.03 263.1 19.39 243.96 38.11 244.31"/>
      <polygon class="d" points="19.03 263.1 18.68 282.03 0 282 0 263 19.03 263.1"/>
      <polygon class="c" points="0 226 0 217 18.67 216.71 18.73 226.09 0 226"/>
      <path class="c" d="M119,0c-7.68,1.76-16.08.81-24.11,1,0-.24.07-.7.11-1h24Z"/>
      <polygon class="d" points="120.3 244.12 119.74 256.81 94.59 256.39 94.64 231.11 120.06 231.04 119.96 214.91 94.64 214.84 94.5 196.03 119.92 195.88 120.06 205.55 145.59 205.68 145.68 230.8 119.97 230.88 120.3 244.12"/>
      <rect class="d" x="17.55" y="96.39" width="51.14" height="18.8"/>
      <polygon class="d" points="197.02 179.44 171.17 179.65 171.12 205.09 146.02 205.07 145.98 179.54 120.07 179.58 119.97 154.18 145.64 154.06 145.68 179.94 171.62 179.92 171.79 154.22 197 153.98 197.02 179.44"/>
      <polygon class="d" points="222.71 282 197.01 282.11 196.99 256.58 171.77 256.55 171.69 231.18 197.02 231.01 196.96 256.93 222.55 256.94 222.71 282"/>
      <rect class="d" x="69" y="51.39" width="25.1" height="25.61"/>
      <rect class="c" x="120" y="25.86" width="25.68" height="25.23"/>
      <path class="c" d="M119.9,309.08c-.66-.32-2.86-1.08-3.86-1.09l-21.07-.03-.48-25.3,25.57-.02-.15,26.43Z"/>
      <polygon class="d" points="196.66 308.08 171.94 307.92 171.68 282.71 197.1 282.63 196.66 308.08"/>
      <rect class="c" x="223" y="282.63" width="25.16" height="25.37"/>
      <polygon class="d" points="145.7 262.97 145.98 257.03 171.14 256.9 171.1 282.1 146.06 281.95 145.7 262.97"/>
      <rect class="d" x="146" y="102.86" width="25.16" height="25.2"/>
      <polygon class="d" points="74.96 282.38 69.04 282.08 68.71 262.98 68.99 257.01 94.1 256.93 94.08 281.95 74.96 282.38"/>
      <polygon class="d" points="68.68 177.81 43.04 177.87 43.02 153.93 17.58 153.78 17.68 134.93 42.99 134.93 43 154.08 68.65 154.1 68.68 177.81"/>
      <polygon class="c" points="68.99 257.01 68.71 262.98 38.07 262.78 38.11 244.31 68.53 244 68.99 257.01"/>
      <rect class="d" x="43" y="197.39" width="25.68" height="18.81"/>
      <path class="c" d="M145.98,257.03l-.29,5.94-25.51.12c-.21-2.38-.52-4.65-.45-6.28l.56-12.69,25.23-.05.45,12.96Z"/>
      <rect class="d" x="69" y="115.76" width="25.1" height="18.83"/>
      <polygon class="d" points="42.97 19.02 42.97 38.16 19.36 38.18 19.14 19.53 42.97 19.02"/>
    </g>
  </g>
</svg>