<?xml version="1.0" encoding="UTF-8"?>
<svg id="a" data-name="Layer 2" xmlns="http://www.w3.org/2000/svg" viewBox="0 0 371 446">
  <defs>
    <style>
      .c {
        fill: #016d77;
      }

      .d {
        fill: #3a9596;
      }
    </style>
  </defs>
  <g id="b" data-name="Layer 1">
    <g>
      <polygon class="c" points="371 33 371 118.38 349.03 118.29 348.94 96.11 326.75 95.85 326.87 70.29 348.97 70.17 349.05 44.37 358 44.08 358.4 33.01 371 33"/>
      <polygon class="c" points="239 0 238.52 21.75 268.57 21.91 268.6 43.95 239.18 44 238.99 29.03 208.98 29.1 209 0 239 0"/>
      <polygon class="c" points="90 0 89.53 29.02 60.16 28.95 60 0 90 0"/>
      <polygon class="c" points="238.54 446 209 446 208.94 416.96 238.55 416.97 238.54 446"/>
      <rect class="c" x="1" y="0" width="29" height="29"/>
      <polygon class="c" points="179 0 179.01 29 149.77 29 150 0 179 0"/>
      <polygon class="d" points="298.22 446 268.9 446 268.96 424.35 298.18 424.47 298.22 446"/>
      <polygon class="c" points="371 195 371 217.15 349.07 217.07 348.83 194.97 371 195"/>
      <polygon class="c" points="371 239.88 371 262 348.99 262 349.01 239.9 371 239.88"/>
      <polygon class="c" points="371 290.04 371 312.16 349.01 312.1 348.99 289.98 371 290.04"/>
      <polygon class="c" points="371 161.65 371 183.76 349.03 183.77 348.99 161.69 371 161.65"/>
      <polygon class="d" points="350.41 446 326.75 446 326.88 424.35 350.38 424.53 350.41 446"/>
      <polygon class="c" points="349 0 371 0 371 21.35 349.01 21.28 349 0"/>
      <polygon class="d" points="371 357.35 371 379.19 350.93 379.15 350.89 357.44 371 357.35"/>
      <polygon class="c" points="371 402.06 371 424 350.87 423.99 351.02 401.99 371 402.06"/>
      <rect class="d" width="1" height="29"/>
      <path class="d" d="M281.68,59.03l.29,10.93-.43,26.22,16.72.19-.02,21.97c-10.29.06-19.82,0-29.54.7-2.11.15-5.35-.46-7.52-.42l.25-59.6,20.24.02Z"/>
      <polygon class="c" points="208.71 163.04 209.13 148.86 238.6 148.68 238.61 177.95 208.71 178 208.87 196.97 238.62 197.07 238.51 219.01 209.23 218.97 208.72 207.75 179 207.75 178.97 238.06 208.82 238.04 208.72 267.4 178.98 267.35 179.03 237.78 149.82 237.74 149.8 208.01 179.03 208 179.03 178.26 209.17 178.27 208.71 163.04"/>
      <polygon class="c" points="281.97 69.97 281.68 59.03 282.08 21.86 326.2 21.85 326.35 43.85 303.95 44.13 303.84 69.97 281.97 69.97"/>
      <rect class="c" x="268.92" y="312.67" width="59.16" height="21.82"/>
      <path class="d" d="M119.92,29.49l-.19,29.41,29.33-.13.86.32c-.4,9.66-.38,19.39-.08,29.06l-.71.7-29.07.09-.08-30.25h-29.89s.05-29.47.05-29.47l29.77.27Z"/>
      <path class="d" d="M208.98,29.1c0,9.99-1.26,20.55,1.09,30.01l-.96.97c-9.44-2.69-20.14-1.11-30.16-1.08l.09-29.66,29.93-.24Z"/>
      <polygon class="d" points="208.94 416.96 179.07 416.35 178.96 387.07 208.66 387.11 208.94 416.96"/>
      <rect class="c" x="238.99" y="357.31" width="29.51" height="29.5"/>
      <path class="c" d="M237.85,59.17l.9,2.83-.3,26.88-23.54-.3c-2-.03-4.18-.32-5.77-.65l-.02-27.86.96-.97,27.78.06Z"/>
      <path class="d" d="M238.45,88.88l.18,29.54-29.54-.08.06-30.41c1.59.33,3.76.62,5.77.65l23.54.3Z"/>
      <rect class="c" x="30" y="59" width="29.82" height="29.35"/>
      <path class="c" d="M261.18,118.61c2.17-.04,5.41.57,7.52.42-.14,7.37.61,14.79.28,22.08l-.31,6.93-29.63.03.06-29.08,22.08-.39Z"/>
      <polygon class="c" points="149.14 88.85 149.24 118.33 119.93 118.33 120.07 88.94 149.14 88.85"/>
      <rect class="c" x="90.01" y="118.87" width="29.54" height="29.27"/>
      <polygon class="c" points="179.31 141.1 178.86 148.15 149.83 148.06 149.86 118.9 178.88 118.9 179.31 141.1"/>
      <path class="c" d="M178.96,59l.02,29.28-29.14-.13c-.3-9.67-.31-19.4.08-29.06l29.04-.09Z"/>
      <rect class="c" x="119.94" y="148.65" width="29.43" height="29.42" transform="translate(-28.75 297.96) rotate(-89.98)"/>
      <rect class="c" x="149.77" y="297.67" width="29.23" height="29.33"/>
      <rect class="c" x="119.93" y="238" width="29.34" height="29.43"/>
      <rect class="d" x="60.07" y="88.87" width="29.51" height="29.54"/>
      <rect class="c" x="268.93" y="239.89" width="29.35" height="27.54"/>
      <polygon class="d" points="304.07 141.35 304.02 162.92 269.07 163.24 268.67 148.05 268.98 141.12 304.07 141.35"/>
      <rect class="c" x="239" y="290" width="29.54" height="22.13"/>
      <path class="d" d="M209.13,148.86l-.42,14.18-29.64.17-.21-15.06.45-7.05,29.35-.04c.2,3.06.54,5.56.47,7.79Z"/>
      <rect class="c" x="268.93" y="195" width="29.35" height="22.17"/>
      <rect class="c" x="298.79" y="267.88" width="29.29" height="21.93"/>
      <rect class="c" x="298.76" y="402" width="27.46" height="22"/>
      <rect class="c" x="298.77" y="357.38" width="27.46" height="21.8"/>
      <rect class="c" x="326.75" y="379.69" width="23.68" height="22.13"/>
      <polygon class="c" points="304.02 162.92 304.07 141.35 326.26 140.93 326.23 163.15 304.02 162.92"/>
      <rect class="c" x="326.8" y="118.87" width="21.96" height="21.88"/>
      <rect class="c" x="326.79" y="217.66" width="21.95" height="21.76"/>
      <polygon class="d" points="348.83 194.97 326.89 194.68 326.83 184.02 348.72 184.09 348.83 194.97"/>
      <path class="d" d="M238.75,62l-.9-2.83c.51,0,1.21.72,1.14,1.23-.05.34-.24,1.26-.24,1.6Z"/>
      <polygon class="c" points="149.06 58.77 119.73 58.9 119.92 29.49 149.24 29.46 149.06 58.77"/>
    </g>
  </g>
</svg>