<?xml version="1.0" encoding="UTF-8"?>
<svg id="b" data-name="Layer 2" xmlns="http://www.w3.org/2000/svg" viewBox="0 0 2412.23 412.29">
  <defs>
    <style>
      .d {
        fill: #33393b;
      }

      .e {
        fill: #06707a;
      }

      .f {
        fill: #ff7264;
      }
    </style>
  </defs>
  <g id="c" data-name="Layer 1">
    <g>
      <path class="e" d="M196.78,409.93c-5.6,2.9-10.24,3.23-15.92.46L0,332.65.02,82.3,188.19,0l187.64,81.79.04,251.19-179.08,76.95ZM175.47,153.1v26.21L25.33,108.78l-.29,196.66,109.95-52.55,40.55-18.16v25.24s-131.39,64-131.39,64l144.4,62.71,144.11-62.57-131.42-63.09-.07-26.06,149.79,69.93.04-196.05-149.79,70.44-.03-26.21,131.05-62.99L187.88,26.8,44.28,89.99l131.19,63.11Z"/>
      <path class="d" d="M468.21,291.6l-.39-26.79,19.54-1.18-.34-108.25-18.92-.86.16-26.86,93.38.27c21.04,2.15,37.97,13.59,41.07,33.4,3.5,19.64-4.72,39.7-25.06,47.04,15.87,6.02,26.23,16.52,26.95,32.09,4.45,27.61-15.29,48.85-43.02,51.29l-93.38-.13ZM556.55,194.15c10.16-3.98,15.12-10.76,14.38-20.21.55-8.8-5.11-16.35-14.47-18.84l-37.94-.05.11,40.07,37.92-.96ZM555.9,263.47c12.46-2.34,18.12-12.49,16.62-23.3-.14-10.23-9.29-16.1-19.97-17.66l-33.91.1.22,41,37.04-.16Z"/>
      <path class="d" d="M1321.21,233.37c4.09,17.54,13.82,29.89,31.16,30.71,10.12,1.03,20.06-1.72,27.02-7.89,6.14-7.88,9.07-16.42,9.67-28.59l30.62-.13c2.21,18.2-3.94,34.83-15.67,47.38-13.05,11.72-30.9,18.35-49.11,16.6-36.01,1.17-63.82-23.15-65.94-58.99l.13-51.92c2.62-36.28,31.41-61.03,67.68-58.57,36.52-2.45,65.11,25.64,62.18,61.22l-31.08.22c.93-18.47-10.66-33.41-28.99-33.94-19.69-2.88-33.17,10.16-37.7,29.15l.04,54.75Z"/>
      <polygon class="d" points="1054.19 196.48 1054.77 223.97 986.49 223.91 985.99 291.73 954.72 291.41 954.66 127.63 1059.44 127.42 1059.47 155.69 986.63 155.1 986.12 196.06 1054.19 196.48"/>
      <path class="d" d="M1517.01,274.11c-11.87,17.51-34.25,21.04-53.39,14.68-17.12-5.55-26.94-19.84-25.27-37.01.57-17.16,13.64-28.72,31.08-32.44l42.53-2.02c2.24-4.92,1.43-11.07-1.17-17.61-3.79-2.66-8.93-5.44-14.48-7.88-13.13,0-23.6,3.06-28.16,16.92l-26.9-7.1c6.61-25.07,30.68-35.39,54.87-33.78,24.83.11,45.63,15,48.42,40.25l.27,51.49c3.32,4.05,7.69,5.12,14.74,4.94l.18,23.28-25.39.65c-6.7-3.09-11.37-7.1-17.33-14.37ZM1484.46,268.01c8.83-.63,16.48-2.77,22.25-6.71,5.19-6.96,7.42-13.56,6.25-22.5l-32.26.88c-8.17,1.79-13.51,7.53-12.56,15.48.39,7.76,7.11,11.03,16.32,12.85Z"/>
      <path class="d" d="M2047.14,274.15c-18.5,22.6-52.89,23.42-72.24,2.42-7.14-11-9.72-23.26-4.88-35.79,4.29-10.41,15.08-17.35,27.88-21.22l44.11-1.5c2.5-4.42,1.67-11.94-1.09-18.34-4.36-4.07-11.1-6.9-18.13-7.7-12.14.86-21.67,5.42-25.33,17.7l-25.38-7.9c5.97-24.37,30.34-35.58,54.3-34,23.47.09,42.83,13.44,47.89,36.49l.79,55.92c2.71,3.57,7.79,4.62,14.41,4.45v23.19s-24.85.63-24.85.63c-7.3-2.6-12.37-6.55-17.48-14.37ZM2044.79,239.4l-33.81.57c-7.46,2.35-12.52,5.95-12.59,13.52.02,6.53,4.72,11.07,11.71,13.71,9.32,1.09,17.83-.21,25.32-4.72,5.77-6.18,9.17-12.43,9.37-23.08Z"/>
      <path class="d" d="M747.78,229.01c0,34.64-28.08,62.73-62.73,62.73s-62.73-28.08-62.73-62.73,28.08-62.73,62.73-62.73,62.73,28.08,62.73,62.73ZM716.03,228c1.22-19.93-14.07-34.56-32.24-34-17.93.06-31.24,16.06-30.13,34.66-.96,19.79,12.63,35.23,32.02,34.27,18.18,1.08,31.62-14.78,30.35-34.93Z"/>
      <path class="d" d="M2317.76,228.85c0,34.73-28.15,62.88-62.88,62.88s-62.88-28.15-62.88-62.88,28.15-62.88,62.88-62.88,62.88,28.15,62.88,62.88ZM2286.04,228.33c.68-19.86-13.78-36.53-32.27-34.83-18.98-.61-31.83,16.35-30.42,35.66-.62,19.74,12.96,35.89,32.43,34.44,18.12.56,31.12-15.33,30.27-35.28Z"/>
      <path class="d" d="M1852.69,172.15l30.51.09.09,116.92-29.13.62-2.82-15.65c-12.96,16.62-31.09,21.35-51.01,14.69-16.86-5.09-28.7-21.46-29.61-41.39l-.02-75.29h29.91s.24,74.12.24,74.12c2.23,11.55,9.5,20.45,21.82,19.93,15.99,2.68,28.19-9.54,29.98-25.09l.04-68.96Z"/>
      <polygon class="d" points="879.09 291.13 844.18 291.54 815.4 248.69 787.84 291 752.13 291.73 793.22 231.78 753.88 173.97 788.48 173.59 815.78 213.99 843 173.9 877.39 173.99 838.64 231.14 879.09 291.13"/>
      <path class="d" d="M1684.43,264.72c9.45,1.27,17.22.72,25.76-2.35,5.55-4.7,9.68-11.16,12.65-21.19l28.9,5.26c-3.8,29.18-28.99,46.26-56.93,45.25-36.78,1.3-64.75-26.24-62.56-62.93-.88-37.73,30.02-64.21,67.32-60.17,25.31,1.19,47.46,17.51,50.57,43.85l-28.06,4.35c-3.71-16.09-17.11-23.55-32.34-22.43-14.46.83-24.72,14.11-26.76,29-2.08,17.5,3.89,34.54,21.45,41.35Z"/>
      <path class="d" d="M1214.09,266.05l.53,25.68-35.39-.27c-13.95-1.98-21.93-11.09-23.61-25.19l-.17-67.41-27.75-.56-.36-24.33,28.02-.75.73-35.54,29.22-.02.45,35.81,31.82.68.19,24.36-32.33.21.16,65.09c9.88,1.84,16.67,2.09,28.5,2.27Z"/>
      <path class="d" d="M2177.07,266.5l.24,24.04c-13.52,1.57-26.57,1.67-40.16-.21-12.47-3.45-18.48-13.04-19.31-25.69l.14-66.09-28.64-.44-.02-24.24,28.49-.45.42-35.24,29.28.03.47,35.29,31.83.2.32,24.89-32.08-.46v66.8c10.65,1.39,16.45,1.55,29,1.55Z"/>
      <rect class="d" x="1913.17" y="127.13" width="30.58" height="164.6"/>
      <rect class="d" x="1578.02" y="127.01" width="30.24" height="164.72"/>
      <path class="d" d="M2412.23,200.66l-17.52-.12c-13.99-.59-22.14,9.21-23.88,22.56l.35,68.62-31-.06-.11-117.01,30.11-.45,1.63,16.42c9.06-16.24,21.99-18.88,40.16-16.32l.28,26.35Z"/>
      <rect class="d" x="1078.68" y="173.95" width="30.61" height="117.78"/>
      <circle class="d" cx="1093.9" cy="140.09" r="19.53"/>
      <polygon class="f" points="201.16 152.73 201.19 178.94 201.16 234.62 201.23 260.68 200.72 321.08 243.38 321.63 189.45 375.72 135.68 321.74 175.97 321.03 175.55 259.63 175.54 234.39 175.47 178.98 175.47 152.77 175.9 92.72 135.76 92.04 189.16 36.58 241.37 92 200.71 92.73 201.16 152.73"/>
    </g>
  </g>
</svg>