<?xml version="1.0" encoding="UTF-8"?>
<svg id="a" data-name="Layer 2" xmlns="http://www.w3.org/2000/svg" viewBox="0 0 1966.78 655.62">
  <defs>
    <style>
      .c {
        fill: #06707a;
      }

      .d {
        fill: #2d3436;
      }

      .e {
        fill: #ff7264;
      }
    </style>
  </defs>
  <g id="b" data-name="Layer 1">
    <g>
      <path class="c" d="M984.26,431.8l-197.12-84.53-.02-261.26L983.88,0l195.74,85.41.03,262.23-195.39,84.15ZM970.4,159.84v27.37l-156.77-73.64-.32,205.03,157.16-73.52v26.36s-137.19,66.83-137.19,66.83l150.77,65.48,150.47-65.33-137.23-65.88-.08-27.22,156.4,73.02.04-204.71-156.41,73.55-.03-27.37,136.84-65.77-150.7-66.08-149.95,65.98,136.99,65.9Z"/>
      <polygon class="e" points="997.23 159.8 997.25 187.17 997.22 245.31 997.29 272.52 996.72 335.58 1041.31 336.16 985 392.63 928.85 336.28 970.95 335.53 970.48 271.43 970.47 245.07 970.4 187.21 970.4 159.84 970.85 97.14 928.94 96.43 984.69 38.52 1039.21 96.4 996.71 97.15 997.23 159.8"/>
    </g>
    <g>
      <path class="d" d="M0,652.37v-26.94h21.36v-108.67H0v-26.94h83.59c9.91,0,18.54,1.67,25.89,4.99,7.35,3.33,13.08,8.05,17.18,14.16,4.1,6.12,6.15,13.43,6.15,21.94v2.32c0,7.43-1.39,13.51-4.18,18.23-2.79,4.72-6.08,8.36-9.87,10.91-3.8,2.55-7.39,4.38-10.8,5.46v4.18c3.4.93,7.12,2.67,11.15,5.22,4.02,2.55,7.47,6.23,10.33,11.03,2.86,4.8,4.3,11.07,4.3,18.81v2.32c0,8.98-2.09,16.68-6.27,23.1-4.18,6.43-9.95,11.34-17.3,14.75-7.35,3.41-15.91,5.11-25.66,5.11H0ZM52.01,556.7h28.33c6.35,0,11.57-1.62,15.67-4.88,4.1-3.25,6.15-7.74,6.15-13.47v-2.32c0-5.88-2.01-10.41-6.04-13.58-4.03-3.17-9.29-4.76-15.79-4.76h-28.33v39.01ZM52.01,624.51h28.79c6.65,0,12.04-1.62,16.14-4.88,4.1-3.25,6.15-7.9,6.15-13.93v-2.32c0-6.04-2.01-10.68-6.04-13.93-4.03-3.25-9.44-4.88-16.25-4.88h-28.79v39.94Z"/>
      <path class="d" d="M214.56,655.62c-11.46,0-21.75-2.32-30.88-6.97-9.14-4.64-16.33-11.38-21.6-20.2-5.26-8.82-7.9-19.43-7.9-31.81v-3.72c0-12.38,2.63-22.99,7.9-31.81,5.26-8.82,12.46-15.56,21.6-20.2,9.13-4.64,19.43-6.97,30.88-6.97s21.75,2.32,30.88,6.97c9.13,4.64,16.33,11.38,21.6,20.2,5.26,8.82,7.9,19.43,7.9,31.81v3.72c0,12.39-2.63,22.99-7.9,31.81-5.26,8.82-12.46,15.56-21.6,20.2-9.14,4.64-19.43,6.97-30.88,6.97ZM214.56,629.62c8.98,0,16.41-2.9,22.29-8.71,5.88-5.81,8.82-14.12,8.82-24.96v-2.32c0-10.83-2.9-19.16-8.71-24.96-5.81-5.81-13.28-8.71-22.41-8.71s-16.41,2.9-22.29,8.71c-5.88,5.8-8.82,14.13-8.82,24.96v2.32c0,10.84,2.94,19.16,8.82,24.96,5.88,5.8,13.31,8.71,22.29,8.71Z"/>
      <path class="d" d="M284.22,652.37l41.8-58.05-41.33-57.12h33.9l26.24,38.31h4.18l26.24-38.31h33.9l-41.33,57.12,41.8,58.05h-34.37l-26.24-38.78h-4.18l-26.24,38.78h-34.37Z"/>
      <path class="d" d="M489.95,652.37v-162.55h102.17v27.87h-71.52v39.24h65.95v27.87h-65.95v67.57h-30.65Z"/>
      <path class="d" d="M629.51,523.73c-5.26,0-9.72-1.7-13.35-5.11-3.64-3.4-5.46-7.89-5.46-13.47s1.82-10.06,5.46-13.47c3.64-3.4,8.09-5.11,13.35-5.11s9.91,1.71,13.47,5.11c3.56,3.41,5.34,7.89,5.34,13.47s-1.78,10.06-5.34,13.47c-3.56,3.41-8.05,5.11-13.47,5.11ZM614.88,652.37v-115.17h29.26v115.17h-29.26Z"/>
      <path class="d" d="M720.77,652.37c-7.59,0-13.74-2.36-18.46-7.08-4.72-4.72-7.08-11.03-7.08-18.92v-65.02h-28.79v-24.15h28.79v-35.76h29.26v35.76h31.58v24.15h-31.58v59.91c0,4.64,2.17,6.97,6.5,6.97h22.29v24.15h-32.51Z"/>
      <path class="d" d="M902.35,655.62c-20.13,0-36.07-5.61-47.83-16.83-11.77-11.22-17.65-27.28-17.65-48.18v-39.01c0-20.9,5.88-36.96,17.65-48.18,11.76-11.22,27.71-16.83,47.83-16.83s35.41,5.46,46.33,16.37c10.91,10.91,16.37,25.89,16.37,44.93v1.39h-30.19v-2.32c0-9.6-2.67-17.49-8.01-23.68-5.34-6.19-13.51-9.29-24.5-9.29s-19.35,3.33-25.54,9.98c-6.19,6.66-9.29,15.71-9.29,27.17v39.94c0,11.3,3.09,20.32,9.29,27.05,6.19,6.73,14.71,10.1,25.54,10.1s19.16-3.13,24.5-9.4,8.01-14.12,8.01-23.57v-4.18h30.19v3.25c0,19.04-5.46,34.02-16.37,44.93s-26.36,16.37-46.33,16.37Z"/>
      <path class="d" d="M1026.81,655.62c-8.21,0-15.56-1.43-22.06-4.3s-11.65-7.04-15.44-12.54c-3.79-5.49-5.69-12.19-5.69-20.09s1.89-14.51,5.69-19.85c3.79-5.34,9.06-9.36,15.79-12.07,6.73-2.71,14.43-4.06,23.11-4.06h31.58v-6.5c0-5.42-1.71-9.87-5.11-13.35-3.41-3.48-8.82-5.22-16.25-5.22s-12.7,1.67-16.25,4.99c-3.56,3.33-5.88,7.63-6.97,12.89l-26.94-9.06c1.86-5.88,4.84-11.26,8.94-16.14,4.1-4.88,9.6-8.82,16.49-11.84,6.89-3.02,15.29-4.53,25.2-4.53,15.17,0,27.17,3.79,35.99,11.38,8.82,7.59,13.24,18.58,13.24,32.97v42.96c0,4.64,2.17,6.97,6.5,6.97h9.29v24.15h-19.5c-5.73,0-10.45-1.39-14.17-4.18s-5.57-6.5-5.57-11.15v-.23h-4.41c-.62,1.86-2.01,4.3-4.18,7.31-2.17,3.02-5.57,5.69-10.22,8.01s-10.99,3.48-19.04,3.48ZM1031.92,631.94c8.2,0,14.9-2.28,20.09-6.85,5.18-4.56,7.78-10.64,7.78-18.23v-2.32h-29.49c-5.42,0-9.68,1.16-12.77,3.48-3.1,2.32-4.64,5.57-4.64,9.75s1.63,7.59,4.88,10.22c3.25,2.63,7.97,3.95,14.17,3.95Z"/>
      <path class="d" d="M1125.27,652.37v-162.55h29.26v162.55h-29.26Z"/>
      <path class="d" d="M1241.14,655.62c-11.15,0-21.25-2.32-30.3-6.97-9.06-4.64-16.22-11.38-21.48-20.2-5.26-8.82-7.89-19.51-7.89-32.04v-3.25c0-12.54,2.63-23.22,7.89-32.04,5.26-8.82,12.42-15.56,21.48-20.2,9.06-4.64,19.16-6.97,30.3-6.97s20.43,1.94,28.33,5.8c7.89,3.87,14.28,9.17,19.16,15.91,4.88,6.73,8.09,14.36,9.64,22.87l-28.33,6.04c-.62-4.64-2.01-8.82-4.18-12.54-2.17-3.72-5.22-6.65-9.17-8.82-3.95-2.17-8.86-3.25-14.75-3.25s-11.19,1.28-15.91,3.83c-4.72,2.55-8.44,6.35-11.15,11.38-2.71,5.03-4.06,11.19-4.06,18.46v2.32c0,7.28,1.35,13.43,4.06,18.46,2.71,5.03,6.42,8.82,11.15,11.38,4.72,2.55,10.02,3.83,15.91,3.83,8.82,0,15.52-2.28,20.09-6.85s7.47-10.57,8.71-18l28.33,6.73c-2.01,8.21-5.46,15.67-10.33,22.41-4.88,6.73-11.26,12.04-19.16,15.91-7.9,3.87-17.34,5.81-28.33,5.81Z"/>
      <path class="d" d="M1366.99,654.23c-8.98,0-16.83-2.05-23.57-6.15-6.73-4.1-11.96-9.79-15.67-17.07-3.71-7.27-5.57-15.63-5.57-25.08v-68.73h29.26v66.41c0,8.67,2.13,15.17,6.39,19.51,4.26,4.33,10.33,6.5,18.23,6.5,8.98,0,15.94-2.98,20.9-8.94,4.95-5.96,7.43-14.28,7.43-24.96v-58.52h29.26v115.17h-28.79v-15.09h-4.18c-1.86,3.87-5.34,7.66-10.45,11.38-5.11,3.71-12.85,5.57-23.22,5.57Z"/>
      <path class="d" d="M1466.15,652.37v-162.55h29.26v162.55h-29.26Z"/>
      <path class="d" d="M1563.67,655.62c-8.21,0-15.56-1.43-22.06-4.3s-11.65-7.04-15.44-12.54c-3.79-5.49-5.69-12.19-5.69-20.09s1.89-14.51,5.69-19.85c3.79-5.34,9.06-9.36,15.79-12.07,6.73-2.71,14.43-4.06,23.11-4.06h31.58v-6.5c0-5.42-1.71-9.87-5.11-13.35-3.41-3.48-8.82-5.22-16.25-5.22s-12.7,1.67-16.25,4.99c-3.56,3.33-5.88,7.63-6.97,12.89l-26.94-9.06c1.86-5.88,4.84-11.26,8.94-16.14,4.1-4.88,9.6-8.82,16.49-11.84,6.89-3.02,15.29-4.53,25.2-4.53,15.17,0,27.17,3.79,35.99,11.38,8.82,7.59,13.24,18.58,13.24,32.97v42.96c0,4.64,2.17,6.97,6.5,6.97h9.29v24.15h-19.5c-5.73,0-10.45-1.39-14.17-4.18s-5.57-6.5-5.57-11.15v-.23h-4.41c-.62,1.86-2.01,4.3-4.18,7.31-2.17,3.02-5.57,5.69-10.22,8.01s-10.99,3.48-19.04,3.48ZM1568.78,631.94c8.2,0,14.9-2.28,20.09-6.85,5.18-4.56,7.78-10.64,7.78-18.23v-2.32h-29.49c-5.42,0-9.68,1.16-12.77,3.48-3.1,2.32-4.64,5.57-4.64,9.75s1.63,7.59,4.88,10.22c3.25,2.63,7.97,3.95,14.17,3.95Z"/>
      <path class="d" d="M1697.89,652.37c-7.59,0-13.74-2.36-18.46-7.08-4.72-4.72-7.08-11.03-7.08-18.92v-65.02h-28.79v-24.15h28.79v-35.76h29.26v35.76h31.58v24.15h-31.58v59.91c0,4.64,2.17,6.97,6.5,6.97h22.29v24.15h-32.51Z"/>
      <path class="d" d="M1810.27,655.62c-11.46,0-21.75-2.32-30.88-6.97-9.14-4.64-16.33-11.38-21.6-20.2-5.26-8.82-7.89-19.43-7.89-31.81v-3.72c0-12.38,2.63-22.99,7.89-31.81,5.26-8.82,12.46-15.56,21.6-20.2,9.13-4.64,19.43-6.97,30.88-6.97s21.75,2.32,30.88,6.97c9.13,4.64,16.33,11.38,21.6,20.2,5.26,8.82,7.89,19.43,7.89,31.81v3.72c0,12.39-2.63,22.99-7.89,31.81-5.26,8.82-12.46,15.56-21.6,20.2-9.14,4.64-19.43,6.97-30.88,6.97ZM1810.27,629.62c8.98,0,16.41-2.9,22.29-8.71,5.88-5.81,8.82-14.12,8.82-24.96v-2.32c0-10.83-2.9-19.16-8.71-24.96s-13.28-8.71-22.41-8.71-16.41,2.9-22.29,8.71c-5.88,5.8-8.82,14.13-8.82,24.96v2.32c0,10.84,2.94,19.16,8.82,24.96,5.88,5.8,13.31,8.71,22.29,8.71Z"/>
      <path class="d" d="M1897.59,652.37v-115.17h28.79v13h4.18c1.7-4.64,4.53-8.05,8.48-10.22,3.95-2.17,8.55-3.25,13.82-3.25h13.93v26.01h-14.4c-7.43,0-13.55,1.97-18.34,5.92-4.8,3.95-7.2,10.02-7.2,18.23v65.48h-29.26Z"/>
    </g>
  </g>
</svg>