<?xml version="1.0" encoding="UTF-8"?>
<svg id="a" data-name="Layer 2" xmlns="http://www.w3.org/2000/svg" viewBox="0 0 375.87 412.29">
  <defs>
    <style>
      .c {
        fill: #06707a;
      }

      .d {
        fill: #ff7264;
      }
    </style>
  </defs>
  <g id="b" data-name="Layer 1">
    <path class="c" d="M196.78,409.93c-5.6,2.9-10.24,3.23-15.92.46L0,332.65.02,82.3,188.19,0l187.64,81.79.04,251.19-179.08,76.95ZM175.47,153.1v26.21L25.33,108.78l-.29,196.66,109.95-52.55,40.55-18.16v25.24s-131.39,64-131.39,64l144.4,62.71,144.11-62.57-131.42-63.09-.07-26.06,149.79,69.93.04-196.05-149.79,70.44-.03-26.21,131.05-62.99L187.88,26.8,44.28,89.99l131.19,63.11Z"/>
    <polygon class="d" points="201.16 153.07 201.19 179.28 201.16 234.96 201.23 261.02 200.72 321.41 243.38 321.96 189.45 376.05 135.68 322.08 175.97 321.36 175.55 259.97 175.54 234.73 175.47 179.32 175.47 153.1 175.9 93.05 135.76 92.38 189.16 36.91 241.37 92.34 200.71 93.06 201.16 153.07"/>
  </g>
</svg>